HIERARCHY
ROOT hip
{
  OFFSET 0 0 0
  CHANNELS 6 Xposition Yposition Zposition Zrotation Yrotation Xrotation
  JOINT abdomen
  {
    OFFSET 0 20.6881 -0.73152
    CHANNELS 3 Zrotation Xrotation Yrotation
    JOINT chest
    {
      OFFSET 0 11.7043 -0.48768
      CHANNELS 3 Zrotation Xrotation Yrotation
      JOINT neck
      {
        OFFSET 0 22.1894 -2.19456
        CHANNELS 3 Zrotation Xrotation Yrotation
        JOINT head
        {
          OFFSET -0.24384 7.07133 1.2192
          CHANNELS 3 Zrotation Xrotation Yrotation
          JOINT leftEye
          {
            OFFSET 4.14528 8.04674 8.04672
            CHANNELS 3 Zrotation Xrotation Yrotation
            End Site
            {
              OFFSET 1 0 0
            }
          }
          JOINT rightEye
          {
            OFFSET -3.6576 8.04674 8.04672
            CHANNELS 3 Zrotation Xrotation Yrotation
            End Site
            {
              OFFSET 1 0 0
            }
          }
        }
      }
      JOINT rCollar
      {
        OFFSET -2.68224 19.2634 -4.8768
        CHANNELS 3 Zrotation Xrotation Yrotation
        JOINT rShldr
        {
          OFFSET -8.77824 -1.95073 1.46304
          CHANNELS 3 Zrotation Xrotation Yrotation
          JOINT rForeArm
          {
            OFFSET -28.1742 -1.7115 0.48768
            CHANNELS 3 Zrotation Xrotation Yrotation
            JOINT rHand
            {
              OFFSET -22.5879 0.773209 7.07136
              CHANNELS 3 Zrotation Xrotation Yrotation
              JOINT rThumb1
              {
                OFFSET -1.2192 -0.487915 3.41376
                CHANNELS 3 Zrotation Xrotation Yrotation
                JOINT rThumb2
                {
                  OFFSET -3.37035 -0.52449 3.41376
                  CHANNELS 3 Zrotation Xrotation Yrotation
                  End Site
                  {
                    OFFSET -1.78271 -1.18214 1.43049
                  }
                }
              }
              JOINT rIndex1
              {
                OFFSET -7.75947 0.938293 5.60832
                CHANNELS 3 Zrotation Xrotation Yrotation
                JOINT rIndex2
                {
                  OFFSET -2.54057 -0.884171 1.56538
                  CHANNELS 3 Zrotation Xrotation Yrotation
                  End Site
                  {
                    OFFSET -1.62519 -0.234802 1.16502
                  }
                }
              }
              JOINT rMid1
              {
                OFFSET -8.24714 1.18213 3.41376
                CHANNELS 3 Zrotation Xrotation Yrotation
                JOINT rMid2
                {
                  OFFSET -3.10165 -0.590103 1.0647
                  CHANNELS 3 Zrotation Xrotation Yrotation
                  End Site
                  {
                    OFFSET -2.48547 -0.328903 0.83742
                  }
                }
              }
              JOINT rRing1
              {
                OFFSET -8.82822 0.546677 1.51678
                CHANNELS 3 Zrotation Xrotation Yrotation
                JOINT rRing2
                {
                  OFFSET -2.60934 -0.819778 -0.0198488
                  CHANNELS 3 Zrotation Xrotation Yrotation
                  End Site
                  {
                    OFFSET -2.33842 -0.294052 0.168128
                  }
                }
              }
              JOINT rPinky1
              {
                OFFSET -8.27202 -0.0477905 -0.4584
                CHANNELS 3 Zrotation Xrotation Yrotation
                JOINT rPinky2
                {
                  OFFSET -1.82734 -0.647385 -0.700984
                  CHANNELS 3 Zrotation Xrotation Yrotation
                  End Site
                  {
                    OFFSET -1.69225 -0.51767 -0.607171
                  }
                }
              }
            }
          }
        }
      }
      JOINT lCollar
      {
        OFFSET 2.68224 19.2634 -4.8768
        CHANNELS 3 Zrotation Xrotation Yrotation
        JOINT lShldr
        {
          OFFSET 8.77824 -1.95073 1.46304
          CHANNELS 3 Zrotation Xrotation Yrotation
          JOINT lForeArm
          {
            OFFSET 28.1742 -1.7115 0.48768
            CHANNELS 3 Zrotation Xrotation Yrotation
            JOINT lHand
            {
              OFFSET 22.5879 0.773209 7.07136
              CHANNELS 3 Zrotation Xrotation Yrotation
              JOINT lThumb1
              {
                OFFSET 1.2192 -0.487915 3.41376
                CHANNELS 3 Zrotation Xrotation Yrotation
                JOINT lThumb2
                {
                  OFFSET 3.37035 -0.52449 3.41376
                  CHANNELS 3 Zrotation Xrotation Yrotation
                  End Site
                  {
                    OFFSET 1.78271 -1.18214 1.43049
                  }
                }
              }
              JOINT lIndex1
              {
                OFFSET 7.75947 0.938293 5.60832
                CHANNELS 3 Zrotation Xrotation Yrotation
                JOINT lIndex2
                {
                  OFFSET 2.54057 -0.884171 1.56538
                  CHANNELS 3 Zrotation Xrotation Yrotation
                  End Site
                  {
                    OFFSET 1.62519 -0.234802 1.16502
                  }
                }
              }
              JOINT lMid1
              {
                OFFSET 8.24714 1.18213 3.41376
                CHANNELS 3 Zrotation Xrotation Yrotation
                JOINT lMid2
                {
                  OFFSET 3.10165 -0.590103 1.0647
                  CHANNELS 3 Zrotation Xrotation Yrotation
                  End Site
                  {
                    OFFSET 2.48547 -0.328903 0.83742
                  }
                }
              }
              JOINT lRing1
              {
                OFFSET 8.82822 0.546677 1.51678
                CHANNELS 3 Zrotation Xrotation Yrotation
                JOINT lRing2
                {
                  OFFSET 2.60934 -0.819778 -0.0198488
                  CHANNELS 3 Zrotation Xrotation Yrotation
                  End Site
                  {
                    OFFSET 2.33842 -0.294052 0.168128
                  }
                }
              }
              JOINT lPinky1
              {
                OFFSET 8.27202 -0.0477905 -0.4584
                CHANNELS 3 Zrotation Xrotation Yrotation
                JOINT lPinky2
                {
                  OFFSET 1.82734 -0.647385 -0.700984
                  CHANNELS 3 Zrotation Xrotation Yrotation
                  End Site
                  {
                    OFFSET 1.69225 -0.51767 -0.607171
                  }
                }
              }
            }
          }
        }
      }
    }
  }
  JOINT rButtock
  {
    OFFSET -8.77824 4.35084 1.2192
    CHANNELS 3 Zrotation Xrotation Yrotation
    JOINT rThigh
    {
      OFFSET 0 -1.70687 -2.19456
      CHANNELS 3 Zrotation Xrotation Yrotation
      JOINT rShin
      {
        OFFSET 0 -36.8199 0.73152
        CHANNELS 3 Zrotation Xrotation Yrotation
        JOINT rFoot
        {
          OFFSET 0.73152 -45.1104 -5.12064
          CHANNELS 3 Zrotation Xrotation Yrotation
          End Site
          {
            OFFSET -1.1221 -3.69964 12.103
          }
        }
      }
    }
  }
  JOINT lButtock
  {
    OFFSET 8.77824 4.35084 1.2192
    CHANNELS 3 Zrotation Xrotation Yrotation
    JOINT lThigh
    {
      OFFSET 0 -1.70687 -2.19456
      CHANNELS 3 Zrotation Xrotation Yrotation
      JOINT lShin
      {
        OFFSET 0 -36.8199 0.73152
        CHANNELS 3 Zrotation Xrotation Yrotation
        JOINT lFoot
        {
          OFFSET -0.73152 -45.1104 -5.12064
          CHANNELS 3 Zrotation Xrotation Yrotation
          End Site
          {
            OFFSET 1.1221 -3.69964 12.103
          }
        }
      }
    }
  }
}
MOTION
Frames:	4
Frame Time:	0.03333
-0.22579999750381846 67.22380098115435 -0.07000000079177565 -166.22900390625 -63.812713623046875 163.85995483398438 -0.07353469729423523 13.738901138305664 14.168898582458496 -0.44525694847106934 -11.843899726867676 3.9049692153930664 0.2345779836177826 12.864398956298828 10.001200675964355 4.471790790557861 -21.3468017578125 20.46980094909668 -0.0 0.0 -0.0 -0.0 0.0 -0.0 1.7280999493798216e-13 -9.257269430185122e-13 2.6476699522062774e-13 31.32670021057129 79.78792572021484 30.838199615478516 -26.47319984436035 -45.295799255371094 94.06919860839844 -52.05139923095703 -80.7568359375 -59.726497650146484 1.1873699246045533e-10 -1.6938798141907796e-09 -1.4962499017556752e-09 2.9902297304928993e-10 -2.835770063214227e-09 -2.5218198640430955e-09 1.187430015425761e-10 -1.6938900282426061e-09 -1.4962600047851993e-09 7.730909824371338 5.474879741668701 0.4173140823841095 1.1874100314113178e-10 -1.6938999092275253e-09 -1.4962499017556752e-09 2.9055399894714355 0.9651829600334167 0.10290199518203735 1.1874699834546476e-10 -1.6938999092275253e-09 -1.4962499017556752e-09 10.27859878540039 0.73180091381073 0.025912316516041756 1.187269865754459e-10 -1.6938900282426061e-09 -1.4962399097484536e-09 2.221669912338257 -0.733487069606781 -0.208919957280159 1.7277700808688429e-13 -9.25722064108736e-13 2.644880028965929e-13 -64.83649444580078 10.577901840209961 -34.554500579833984 28.30759620666504 -38.262603759765625 -80.86319732666016 0.3322699964046478 16.22570037841797 -2.343440055847168 1.3380899721582296e-09 -3.8400396751292476e-10 -1.1424299284357176e-09 2.3021999862038456e-09 -6.659369722328279e-10 -1.9958499297700882e-09 1.3381000751877536e-09 -3.840029960677782e-10 -1.142419936428496e-09 -7.730909824371338 5.474879741668701 -0.4173140823841095 1.3380899721582296e-09 -3.8400199686705605e-10 -1.142419936428496e-09 -2.9055399894714355 0.9651829600334167 -0.10290199518203735 1.3380899721582296e-09 -3.8400096991075827e-10 -1.1424299284357176e-09 -10.27859878540039 0.73180091381073 -0.025912316516041756 1.3381000751877536e-09 -3.8400199686705605e-10 -1.1424299284357176e-09 -2.221669912338257 -0.733487069606781 0.208919957280159 -2.0321699480147914e-16 0.0 -3.8825099822884138e-19 -15.540799140930176 -37.457305908203125 -25.036998748779297 -4.45766019821167 79.2686996459961 5.244109630584717 -13.176799774169922 -20.243200302124023 -22.792598724365234 2.0321699480147914e-16 0.0 3.8825099822884138e-19 61.1011962890625 -41.930206298828125 58.60649871826172 1.1928099393844604 59.991703033447266 -1.0319898128509521 0.49907997250556946 10.830000877380371 -0.725292980670929
-0.45309999526282163 67.07109844188038 -0.12000000040445731 -164.95399475097656 -63.832393646240234 162.8800048828125 0.10310298949480057 13.73659896850586 14.216700553894043 -0.35006895661354065 -12.029899597167969 3.9347996711730957 0.16852697730064392 12.824300765991211 9.942018508911133 4.704709529876709 -21.306398391723633 20.399099349975586 -0.0 0.0 -0.0 -0.0 0.0 -0.0 1.3155699674170102e-13 2.2492497773161924e-13 3.515879807344108e-13 28.789798736572266 80.07032775878906 33.60219955444336 -26.560298919677734 -45.099300384521484 93.6648941040039 -54.452796936035156 -80.96961975097656 -62.15869140625 1.174509933754564e-09 -2.033649915134106e-09 -2.4046298285895773e-09 2.166310020257356e-09 -3.2456000109704064e-09 -3.994779618210487e-09 1.174520036784088e-09 -2.0336599071413275e-09 -2.404640042641404e-09 7.730909824371338 5.474879741668701 0.4173140823841095 1.174520036784088e-09 -2.0336599071413275e-09 -2.4046298285895773e-09 2.9055399894714355 0.9651829600334167 0.10290199518203735 1.174520036784088e-09 -2.0336599071413275e-09 -2.4046298285895773e-09 10.27859878540039 0.73180091381073 0.025912316516041756 1.1745000527696448e-09 -2.0336599071413275e-09 -2.4046200586269606e-09 2.221669912338257 -0.733487069606781 -0.208919957280159 1.3157499449776427e-13 2.2492799994517504e-13 3.513099912973855e-13 -65.23819732666016 10.302799224853516 -34.76490020751953 28.331195831298828 -38.019405364990234 -80.43839263916016 0.3099280297756195 15.629898071289062 -2.253570318222046 1.7915799954693057e-09 -7.190749662377982e-10 -1.8145499547372879e-09 3.0760800573403912e-09 -1.2437899599149205e-09 -3.1618399010113762e-09 1.7915799954693057e-09 -7.190779638399647e-10 -1.8145400737523687e-09 -7.730909824371338 5.474879741668701 -0.4173140823841095 1.7915799954693057e-09 -7.190769646392425e-10 -1.8145499547372879e-09 -2.9055399894714355 0.9651829600334167 -0.10290199518203735 1.7915701144843865e-09 -7.190759654385204e-10 -1.8145499547372879e-09 -10.27859878540039 0.73180091381073 -0.025912316516041756 1.7915799954693057e-09 -7.190749662377982e-10 -1.814559835722207e-09 -2.221669912338257 -0.733487069606781 0.208919957280159 -2.0321699480147914e-16 0.0 -3.8825099822884138e-19 -15.18529987335205 -37.50190734863281 -25.160099029541016 -4.529299736022949 79.43570709228516 5.340179443359375 -13.419999122619629 -20.287199020385742 -23.17930030822754 2.0321699480147914e-16 0.0 3.8825099822884138e-19 62.23279571533203 -42.20880126953125 59.23709487915039 1.2432199716567993 60.71419906616211 -1.0865298509597778 0.48034706711769104 10.087699890136719 -0.5474939942359924
-0.6515999934583635 66.95200043332287 -0.17200000146906969 -163.8979949951172 -63.89870834350586 162.02999877929688 0.35532599687576294 13.823699951171875 14.090299606323242 -0.2139499932527542 -12.15109920501709 3.920030355453491 -0.04407219588756561 12.720900535583496 9.963730812072754 4.995959281921387 -21.117502212524414 20.497699737548828 -0.0 0.0 -0.0 -0.0 0.0 -0.0 2.0005598536814752e-14 1.8749799889777874e-12 3.3851399331222276e-13 25.198598861694336 80.40523529052734 37.37439727783203 -26.634397506713867 -44.92910385131836 93.31489562988281 -60.23180389404297 -81.38180541992188 -68.00679779052734 2.4675299581389254e-09 -1.90193993887533e-09 -3.0438698228607564e-09 4.424099753208566e-09 -2.809059873598585e-09 -4.998010005863307e-09 2.4675299581389254e-09 -1.90193993887533e-09 -3.0438900289198045e-09 7.730909824371338 5.474879741668701 0.4173140823841095 2.4675299581389254e-09 -1.90193993887533e-09 -3.043880036912583e-09 2.9055399894714355 0.9651829600334167 0.10290199518203735 2.4675299581389254e-09 -1.90193993887533e-09 -3.043880036912583e-09 10.27859878540039 0.73180091381073 0.025912316516041756 2.4675299581389254e-09 -1.90193993887533e-09 -3.0438698228607564e-09 2.221669912338257 -0.733487069606781 -0.208919957280159 2.0048099261976184e-14 1.8749799889777874e-12 3.3833398864653585e-13 -65.80499267578125 9.820549011230469 -34.86019515991211 28.35650062561035 -37.71300506591797 -79.91119384765625 0.33576396107673645 16.262298583984375 -2.3496100902557373 1.7440598965023923e-09 -9.718559290661233e-10 -2.195149839678834e-09 2.985889979711942e-09 -1.6779699851809937e-09 -3.815829874298515e-09 1.7440598965023923e-09 -9.718620352927587e-10 -2.195139847671612e-09 -7.730909824371338 5.474879741668701 -0.4173140823841095 1.7440598965023923e-09 -9.718620352927587e-10 -2.195149839678834e-09 -2.9055399894714355 0.9651829600334167 -0.10290199518203735 1.7440499044951707e-09 -9.718610360920366e-10 -2.195149839678834e-09 -10.27859878540039 0.73180091381073 -0.025912316516041756 1.7440699995319164e-09 -9.71857039289148e-10 -2.1951600537306604e-09 -2.221669912338257 -0.733487069606781 0.208919957280159 -2.0321699480147914e-16 0.0 -3.8825099822884138e-19 -14.866000175476074 -37.32649230957031 -25.32149887084961 -4.535269737243652 79.46863555908203 5.364380836486816 -13.537598609924316 -20.473302841186523 -23.274194717407227 2.0321699480147914e-16 0.0 3.8825099822884138e-19 63.05670166015625 -42.416404724121094 59.552894592285156 1.2832798957824707 61.259307861328125 -1.1279999017715454 0.4549509882926941 9.396041870117188 -0.09367990493774414
-0.8554999899045278 66.90780227920372 -0.2360000012401065 -163.5369873046875 -63.94871139526367 161.77001953125 0.309253990650177 13.88110065460205 14.201800346374512 -0.1474369913339615 -12.31779956817627 3.9578404426574707 -0.1992569863796234 12.669500350952148 9.938639640808105 5.314829349517822 -21.00030517578125 20.508899688720703 -0.0 0.0 -0.0 -0.0 0.0 -0.0 9.231650139425104e-14 1.3309899650525495e-14 1.850759942436525e-13 23.47719955444336 80.69681549072266 39.2776985168457 -26.67479705810547 -44.833091735839844 93.12039184570312 -62.8782958984375 -81.52921295166016 -70.6829833984375 2.2174000413599515e-09 -1.098260038467913e-09 -2.258840003932505e-09 3.942229653830509e-09 -1.5016698995395927e-09 -3.685460159275067e-09 2.2174000413599515e-09 -1.098260038467913e-09 -2.2588597659023435e-09 7.730909824371338 5.474879741668701 0.4173140823841095 2.2174000413599515e-09 -1.098249935438389e-09 -2.258849995939727e-09 2.9055399894714355 0.9651829600334167 0.10290199518203735 2.2174000413599515e-09 -1.098249935438389e-09 -2.258849995939727e-09 10.27859878540039 0.73180091381073 0.025912316516041756 2.2174000413599515e-09 -1.098249935438389e-09 -2.258840003932505e-09 2.221669912338257 -0.733487069606781 -0.208919957280159 9.233569854896762e-14 1.3305899113915613e-14 1.8492698420757153e-13 -66.1104965209961 9.603229522705078 -34.98239517211914 28.375398635864258 -37.439697265625 -79.44509887695312 0.35220104455947876 16.640798568725586 -2.407489776611328 1.1287000223347832e-09 -5.451629703223659e-10 -1.0648899539944523e-09 1.9347199398112025e-09 -9.416899482417307e-10 -1.8540798896182764e-09 1.1287000223347832e-09 -5.451689655266989e-10 -1.0648799619872307e-09 -7.730909824371338 5.474879741668701 -0.4173140823841095 1.1287000223347832e-09 -5.451689655266989e-10 -1.0648899539944523e-09 -2.9055399894714355 0.9651829600334167 -0.10290199518203735 1.1286900303275615e-09 -5.451689655266989e-10 -1.0648899539944523e-09 -10.27859878540039 0.73180091381073 -0.025912316516041756 1.1287099033197023e-09 -5.451640250342393e-10 -1.064899946001674e-09 -2.221669912338257 -0.733487069606781 0.208919957280159 -2.0321699480147914e-16 0.0 -3.8825099822884138e-19 -14.481600761413574 -37.28730392456055 -25.07969856262207 -4.5425801277160645 79.50271606445312 5.388869762420654 -13.682300567626953 -20.654897689819336 -23.420400619506836 2.0321699480147914e-16 0.0 3.8825099822884138e-19 63.63739776611328 -42.40400695800781 59.90340042114258 1.3155899047851562 61.68330764770508 -1.1611700057983398 0.4437370002269745 8.7889404296875 0.3299869894981384
